<svg width="198" height="64" viewBox="0 0 198 64" fill="none" xmlns="http://www.w3.org/2000/svg">
<path d="M145.892 31.0139L140.117 32.105C139.584 29.6228 138.098 28.3953 135.687 28.3953C132.267 28.3953 130.276 31.0139 130.276 35.5146C130.276 39.9608 132.351 42.6612 135.827 42.6612C137.369 42.6612 138.687 42.0338 139.5 40.9427C139.977 40.2881 140.173 39.7425 140.341 38.5969L146.173 39.4425C145.64 41.761 145.023 43.0976 143.846 44.4342C142.108 46.3709 139.388 47.4074 135.996 47.4074C132.575 47.4074 129.687 46.3709 127.697 44.4069C125.622 42.3611 124.444 39.1697 124.444 35.5146C124.444 31.8049 125.622 28.6681 127.837 26.5405C129.771 24.7129 132.603 23.7037 135.883 23.7037C139.5 23.7037 142.332 24.9039 144.154 27.277C145.051 28.3953 145.528 29.4046 145.892 31.0139Z" fill="#FF385C"/>
<path d="M197.25 31.0139L191.475 32.105C190.942 29.6228 189.456 28.3953 187.045 28.3953C183.625 28.3953 181.634 31.0139 181.634 35.5146C181.634 39.9608 183.709 42.6612 187.185 42.6612C188.727 42.6612 190.045 42.0338 190.858 40.9427C191.335 40.2881 191.531 39.7425 191.699 38.5969L197.531 39.4425C196.998 41.761 196.381 43.0976 195.204 44.4342C193.466 46.3709 190.746 47.4074 187.354 47.4074C183.933 47.4074 181.045 46.3709 179.055 44.4069C176.98 42.3611 175.802 39.1697 175.802 35.5146C175.802 31.8049 176.98 28.6681 179.195 26.5405C181.129 24.7129 183.961 23.7037 187.241 23.7037C190.858 23.7037 193.69 24.9039 195.512 27.277C196.409 28.3953 196.886 29.4046 197.25 31.0139Z" fill="#FF385C"/>
<path d="M106.174 16.3501C106.174 18.6056 104.356 20.4218 102.101 20.4218C99.8453 20.4218 98.0291 18.6056 98.0291 16.3501C98.0291 14.0945 99.7833 12.2783 102.101 12.2783C104.42 12.3409 106.174 14.1577 106.174 16.3501ZM89.3838 24.5573V25.5599C89.3838 25.5599 87.4424 23.0528 83.3075 23.0528C76.4795 23.0528 71.1536 28.2529 71.1536 35.457C71.1536 42.5991 76.417 47.8611 83.3075 47.8611C87.505 47.8611 89.3838 45.2927 89.3838 45.2927V46.3572C89.3838 46.8585 89.7605 47.2334 90.2612 47.2334H95.3349V23.6774H90.2612C89.7605 23.6793 89.3838 24.1186 89.3838 24.5573ZM89.3838 39.6545C88.445 41.0332 86.565 42.2236 84.3101 42.2236C80.3009 42.2236 77.2306 39.7177 77.2306 35.457C77.2306 31.1969 80.3009 28.691 84.3101 28.691C86.503 28.691 88.5076 29.9439 89.3838 31.2595V39.6545ZM99.0943 23.6793H105.108V47.2353H99.0943V23.6793ZM171.732 33.2653V47.2979H165.717V33.9537C165.717 30.0704 164.464 28.5033 161.084 28.5033C159.267 28.5033 157.387 29.4433 156.195 30.822V47.2359H150.183V23.6799H154.942C155.444 23.6799 155.82 24.1186 155.82 24.5573V25.5599C157.574 23.7425 159.891 23.0528 162.209 23.0528C164.841 23.0528 167.033 23.8057 168.788 25.309C170.917 27.0632 171.732 29.3181 171.732 33.2653ZM120.269 23.0522C122.085 23.0522 123.025 23.3664 123.025 23.3664V28.9413C123.025 28.9413 118.013 27.2497 114.882 30.8214V47.2972H108.867V23.6793H113.942C114.443 23.6793 114.818 24.118 114.818 24.5567V25.5593C115.947 24.2432 118.39 23.0522 120.269 23.0522ZM56.8713 42.8494C56.3694 41.7223 55.8681 40.6565 55.4307 39.6545L55.3681 39.5919C51.0448 30.1943 46.4098 20.6727 41.5226 11.2764L41.3349 10.8996C40.8208 9.92485 40.3199 8.94324 39.8322 7.95504C39.2051 6.82665 38.5793 5.63755 37.5767 4.50916C35.5721 2.0033 32.6901 0.624573 29.621 0.624573C26.488 0.624573 23.6693 2.0033 21.6027 4.38337C20.6627 5.51051 19.973 6.70086 19.3472 7.82925C18.8583 8.81683 18.3574 9.79842 17.8446 10.7738L17.6562 11.1506C12.8322 20.5469 8.13403 30.0691 3.81135 39.4661L3.74814 39.5906C3.31005 40.5945 2.80812 41.659 2.30683 42.7856C1.99391 43.4752 1.68099 44.2269 1.36807 45.0411C0.553222 47.3586 0.30226 49.5515 0.616431 51.8077C1.30548 56.5065 4.43719 60.4518 8.76049 62.2073C10.3896 62.8969 12.0812 63.2099 13.8348 63.2099C14.3361 63.2099 14.9619 63.1473 15.4639 63.0841C17.5316 62.8337 19.6614 62.1453 21.7292 60.955C24.2976 59.5136 26.7409 57.4471 29.4971 54.44C32.2533 57.4471 34.7592 59.5136 37.265 60.955C39.3334 62.1453 41.4625 62.8337 43.5297 63.0841C44.031 63.1479 44.6581 63.2099 45.1594 63.2099C46.9136 63.2099 48.6672 62.8969 50.2331 62.2073C54.6189 60.4518 57.6881 56.4439 58.3777 51.8077C58.8753 49.6154 58.6249 47.4237 57.8107 45.1049C57.4978 44.3533 57.1843 43.5391 56.8713 42.8494ZM29.5578 48.3624C26.1745 44.1023 23.9816 40.0932 23.2305 36.7112C22.9176 35.2698 22.8544 34.0169 23.0428 32.8891C23.1673 31.8866 23.5441 31.0091 24.0454 30.2575C25.2357 28.5671 27.2403 27.5013 29.5584 27.5013C31.8772 27.5013 33.9443 28.5039 35.0721 30.2575C35.5734 31.0091 35.9489 31.8872 36.0753 32.8891C36.2624 34.0175 36.1998 35.3324 35.8869 36.7112C35.1328 40.0306 32.9398 44.0404 29.5578 48.3624ZM54.5526 51.307C54.1145 54.5645 51.9216 57.3845 48.8525 58.6375C47.3492 59.2633 45.7195 59.4517 44.0917 59.2633C42.5258 59.0749 40.9587 58.5736 39.3309 57.6349C37.0754 56.3807 34.8205 54.44 32.1888 51.5573C36.3231 46.4837 38.829 41.8468 39.769 37.7131C40.2077 35.7705 40.2709 34.0169 40.0819 32.3872C39.8322 30.8214 39.2677 29.3801 38.3909 28.1271C36.4477 25.3071 33.1895 23.6793 29.5572 23.6793C25.9248 23.6793 22.6667 25.3709 20.7247 28.1271C19.8479 29.3801 19.2834 30.8214 19.033 32.3872C18.7827 34.0169 18.8447 35.8331 19.346 37.7131C20.2853 41.8468 22.8538 46.5456 26.9255 51.6199C24.3571 54.5019 22.0389 56.4445 19.7834 57.6975C18.1544 58.6375 16.5891 59.1388 15.0233 59.3259C13.3323 59.5143 11.7026 59.2633 10.2619 58.7001C7.19276 57.4471 4.99982 54.6271 4.56173 51.3696C4.37398 49.8037 4.49852 48.2379 5.12561 46.4837C5.31274 45.8566 5.62691 45.2307 5.93983 44.4791C6.37854 43.4765 6.87859 42.4107 7.38051 41.3461L7.44372 41.2216C11.7658 31.8865 16.4014 22.3644 21.2254 13.0932L21.4131 12.7164C21.915 11.7777 22.4163 10.7751 22.917 9.83506C23.4183 8.83247 23.9816 7.89246 24.6712 7.07761C25.9867 5.5756 27.7404 4.76013 29.683 4.76013C31.6256 4.76013 33.3792 5.5756 34.6947 7.07761C35.3844 7.89433 35.9476 8.83435 36.4489 9.83506C36.9508 10.7751 37.4521 11.7777 37.9522 12.7164L38.1406 13.0932C42.891 22.4029 47.465 31.8016 51.8602 41.2842V41.3468C52.3622 42.3506 52.8003 43.4771 53.3015 44.481C53.6145 45.2313 53.928 45.8572 54.1158 46.4843C54.6158 48.1115 54.8036 49.6786 54.5526 51.307Z" fill="#FF385C"/>
</svg>
