<svg width="36" height="36" viewBox="0 0 36 36" fill="none" xmlns="http://www.w3.org/2000/svg">
<g clip-path="url(#clip0)">
<path d="M18.0015 27.4125C15.972 24.867 14.7795 22.6365 14.382 20.727C13.9875 19.1865 14.142 17.955 14.8185 17.0295C15.534 15.9645 16.6005 15.4455 18 15.4455C19.3995 15.4455 20.4645 15.963 21.18 17.04C21.849 17.955 22.017 19.188 21.609 20.7375C21.1725 22.6845 19.9815 24.915 17.991 27.4245L18.0015 27.4125ZM32.403 29.1225C32.1255 30.9915 30.852 32.5425 29.103 33.297C25.7235 34.767 22.3785 32.4225 19.515 29.241C24.2505 23.3145 25.125 18.699 23.0925 15.714C21.9 14.004 20.193 13.1715 18.0015 13.1715C13.5855 13.1715 11.157 16.9065 12.111 21.2445C12.666 23.592 14.139 26.259 16.4865 29.2425C15.0165 30.87 13.6215 32.0265 12.3885 32.742C11.4345 33.258 10.521 33.579 9.64648 33.6555C5.62798 34.254 2.47948 30.3555 3.90898 26.3355C4.10698 25.818 4.50148 24.8655 5.17648 23.394L5.21398 23.3145C7.40998 18.5475 10.077 13.1295 13.1415 7.122L13.221 6.924L14.091 5.25C14.766 4.017 15.0435 3.465 16.1175 2.7855C16.6365 2.4705 17.2725 2.313 17.9865 2.313C19.4175 2.313 20.5335 3.15 21.0105 3.8235C21.2475 4.182 21.528 4.659 21.8835 5.253L22.7205 6.8865L22.8405 7.125C25.902 13.131 28.572 18.537 30.759 23.316L30.798 23.3535L31.5975 25.1835L32.0745 26.3295C32.439 27.249 32.5155 28.1625 32.394 29.1165L32.403 29.1225ZM34.233 25.5375C33.954 24.663 33.4755 23.631 32.883 22.3965V22.3515C30.0495 16.3425 27.42 10.9395 24.9225 6.0855L24.756 5.841C22.9755 2.1915 21.702 0 18.0015 0C14.3415 0 12.7875 2.5425 11.199 5.847L11.0775 6.087C8.57398 10.941 5.94598 16.3515 3.12298 22.3575V22.437L2.28448 24.267C1.96948 25.023 1.80898 25.419 1.76698 25.5375C-0.25802 31.11 3.91648 36 8.96998 36C9.01048 36 9.16798 36 9.36748 35.9595H9.92548C12.5505 35.64 15.2565 33.972 18.0015 30.984C20.745 33.9675 23.454 35.64 26.0745 35.9595H26.6325C26.832 36 26.991 36 27.03 36C32.085 36.0045 36.258 31.1085 34.233 25.5375Z" fill="white"/>
</g>
<defs>
<clipPath id="clip0">
<rect width="36" height="36" fill="white"/>
</clipPath>
</defs>
</svg>
